<?xml version="1.0" standalone="no"?>

<!DOCTYPE svg PUBLIC "-//W3C//DTD SVG 1.1//EN" 
"http://www.w3.org/Graphics/SVG/1.1/DTD/svg11.dtd">

<svg width="100%" height="100%" version="1.1"
xmlns="http://www.w3.org/2000/svg">

<!-- <circle cx="100" cy="100" r="50" stroke="red" stroke-width="1" fill="yellow"/> -->
<!-- <rect rx="50" ry="50" width="100" height="100" stroke="red" stroke-width="1" fill="yellow"/> -->

<!-- <ellipse cx="100" cy="100" rx="220" ry="30"
style="fill:purple"/>

<ellipse cx="100" cy="70" rx="190" ry="20"
style="fill:lime"/>

<ellipse cx="100" cy="45" rx="170" ry="15"
style="fill:yellow"/> -->

<!-- <line x1="10" y1="10" x2="100" y2="100" style="stroke: red; stroke-width: 10;"></line> -->

<!-- <polygon points="100,100 150,150 50,150"
style="fill:yellow;
stroke:red;stroke-width:1"/> -->
<!-- <defs>
<filter id="Gaussian_Blur">
<feGaussianBlur in="SourceGraphic" stdDeviation="20"/>
</filter>
</defs>

<ellipse cx="200" cy="150" rx="70" ry="40"
style="fill:#ff0000;stroke:#000000;
stroke-width:2;filter:url(#Gaussian_Blur)"/> -->

<!-- <polygon points="50 160, 55 180, 70 180, 60 190, 65 205, 50 195, 35 205, 40 190, 30 180, 45 180" style="fill: transparent; stroke: red; stroke-width: 1"/> -->

<!-- <path d="M10 10 H100 V100 H10 Z" fill="red"/> -->

<!-- <circle r="50" cx="100" cy="100" style="stroke: blue; stroke-width: 1; fill: transparent;"/>
<circle r="60" cx="100" cy="100" style="stroke: blue; stroke-width: 1; fill: transparent;"/>
<path d="M100 40 L100 30
A70 70 0 0 1 170 100 L160 100 A60 60 0 0 0 100 40" style="fill: blue;"/>
<text x="100" y="100" text-anchor="middle">同步中</text> -->

<!-- <circle cx="150" cy="150" r="150" stroke-width="2" fill="#C13820"></circle> -->

<circle cx="250" cy="250" r="200" fill="transparent" stroke="#EB826B" stroke-width="5"></circle>
<path d="M 150 76.8
A 200 200, 0, 0, 1, 350 76.8
L 250 250 Z" 
fill="#FEE9A7" stroke="#FFBE46" stroke-width="1" />
<text x="200" y="116.8" transform="rotate(0)" fill="#BD6D26">理财加息券</text>

<path d="M 50 0
A 50 50, 0, 1, 0, 100 50
L 100 0 Z" fill="#E62D2D"/>
</svg>
